# xmcd
#
# Track frame offsets:
#	150
#	15308
#	27418
#	41133
#	55663
#	67513
#	81740
#	94760
#	107193
#	119168
#	131863
#	145868
#	157458
#	173120
#	187913
#	200100
#	212323
#	225730
#	241200
#	254530
#
# Disc length: 3589 seconds
#
# Revision: 1
# Processed by: cddbd v1.4b42PL1 Copyright (c) Steve Scherf et al.
# Submitted via: audiograbber 1.80.04
#
DISCID=230e0314
DTITLE=Fats Waller - Honeysuckle Rose
DYEAR=1987
DGENRE=Blues
TTITLE0=A Porter's Love Song To A Chambermaid
TTITLE1=I Wish I Were Twins
TTITLE2=Armful O' Sweetness
TTITLE3=Do Me A Favour
TTITLE4=Georgia May
TTITLE5=Then I'll Be Tired Of You
TTITLE6=Don't Let It Bother You
TTITLE7=Have A Little  Dream On Me
TTITLE8=Serenade For A Wealthy Widow
TTITLE9=How Can You Face Me?
TTITLE10=Sweetie Pie
TTITLE11=Mandy
TTITLE12=Let's Pretend There's A Moon
TTITLE13=You're Not The Only Oyster In The Stew
TTITLE14=Honeysuckle Rose
TTITLE15=Believe It, Beloved
TTITLE16=Dream Man (Make Me Dream Some More)
TTITLE17=I'm Growing Fonder Of You
TTITLE18=If It Isn't Love
TTITLE19=Breakin' The Ice
EXTD=Mono AAD Digitally Remastered\nCompilation 1987 Conifer Ltd
EXTT0=
EXTT1=
EXTT2=
EXTT3=
EXTT4=
EXTT5=
EXTT6=
EXTT7=
EXTT8=
EXTT9=
EXTT10=
EXTT11=
EXTT12=
EXTT13=
EXTT14=
EXTT15=
EXTT16=
EXTT17=
EXTT18=
EXTT19=
PLAYORDER=
